<mxfile host="65bd71144e">
    <diagram id="2fvm-owgCVbPgjkQU-j1" name="Page-1">
        <mxGraphModel dx="745" dy="367" grid="1" gridSize="10" guides="1" tooltips="1" connect="1" arrows="1" fold="1" page="1" pageScale="1" pageWidth="827" pageHeight="1169" math="1" shadow="0">
            <root>
                <mxCell id="0"/>
                <mxCell id="1" parent="0"/>
                <mxCell id="5" value="$$x_j$$" style="text;html=1;strokeColor=none;fillColor=none;align=center;verticalAlign=middle;whiteSpace=wrap;rounded=0;fontSize=15;" parent="1" vertex="1">
                    <mxGeometry x="256" y="180" width="60" height="30" as="geometry"/>
                </mxCell>
                <mxCell id="6" value="$$x_i$$" style="text;html=1;strokeColor=none;fillColor=none;align=center;verticalAlign=middle;whiteSpace=wrap;rounded=0;fontSize=15;" parent="1" vertex="1">
                    <mxGeometry x="489" y="327" width="60" height="30" as="geometry"/>
                </mxCell>
                <mxCell id="7" value="" style="endArrow=classic;html=1;" parent="1" edge="1">
                    <mxGeometry width="50" height="50" relative="1" as="geometry">
                        <mxPoint x="280" y="328" as="sourcePoint"/>
                        <mxPoint x="520" y="328" as="targetPoint"/>
                    </mxGeometry>
                </mxCell>
                <mxCell id="8" value="" style="endArrow=classic;html=1;" parent="1" edge="1">
                    <mxGeometry width="50" height="50" relative="1" as="geometry">
                        <mxPoint x="310" y="350" as="sourcePoint"/>
                        <mxPoint x="310" y="200" as="targetPoint"/>
                    </mxGeometry>
                </mxCell>
                <mxCell id="12" value="" style="endArrow=none;html=1;strokeWidth=2;startArrow=none;" parent="1" edge="1" source="30">
                    <mxGeometry width="50" height="50" relative="1" as="geometry">
                        <mxPoint x="370" y="270" as="sourcePoint"/>
                        <mxPoint x="520" y="200" as="targetPoint"/>
                    </mxGeometry>
                </mxCell>
                <mxCell id="13" value="" style="endArrow=none;html=1;" parent="1" edge="1">
                    <mxGeometry width="50" height="50" relative="1" as="geometry">
                        <mxPoint x="410" y="328" as="sourcePoint"/>
                        <mxPoint x="380" y="328" as="targetPoint"/>
                    </mxGeometry>
                </mxCell>
                <mxCell id="14" value="" style="endArrow=none;html=1;strokeWidth=2;startArrow=none;entryX=-0.01;entryY=0.51;entryDx=0;entryDy=0;entryPerimeter=0;" parent="1" edge="1" target="32">
                    <mxGeometry width="50" height="50" relative="1" as="geometry">
                        <mxPoint x="290" y="310" as="sourcePoint"/>
                        <mxPoint x="400" y="300" as="targetPoint"/>
                    </mxGeometry>
                </mxCell>
                <mxCell id="16" value="$$x_D$$" style="text;html=1;strokeColor=none;fillColor=none;align=center;verticalAlign=middle;whiteSpace=wrap;rounded=0;fontSize=10;" parent="1" vertex="1">
                    <mxGeometry x="340" y="329" width="60" height="30" as="geometry"/>
                </mxCell>
                <mxCell id="20" value="" style="endArrow=none;dashed=1;html=1;dashPattern=1 3;strokeWidth=2;startArrow=none;" parent="1" source="32" edge="1">
                    <mxGeometry width="50" height="50" relative="1" as="geometry">
                        <mxPoint x="390" y="290" as="sourcePoint"/>
                        <mxPoint x="420" y="290" as="targetPoint"/>
                    </mxGeometry>
                </mxCell>
                <mxCell id="32" value="" style="shape=waypoint;sketch=0;fillStyle=solid;size=5;pointerEvents=1;points=[];fillColor=none;resizable=0;rotatable=0;perimeter=centerPerimeter;snapToPoint=1;" parent="1" vertex="1">
                    <mxGeometry x="409" y="280" width="20" height="20" as="geometry"/>
                </mxCell>
                <mxCell id="35" value="" style="endArrow=none;dashed=1;html=1;dashPattern=1 3;strokeWidth=2;" parent="1" edge="1">
                    <mxGeometry width="50" height="50" relative="1" as="geometry">
                        <mxPoint x="350" y="348" as="sourcePoint"/>
                        <mxPoint x="350" y="348" as="targetPoint"/>
                    </mxGeometry>
                </mxCell>
                <mxCell id="42" value="$$z= 1$$" style="text;html=1;strokeColor=none;fillColor=none;align=center;verticalAlign=middle;whiteSpace=wrap;rounded=0;fontSize=9;" parent="1" vertex="1">
                    <mxGeometry x="409" y="210" width="60" height="30" as="geometry"/>
                </mxCell>
                <mxCell id="44" value="$$z= -1$$" style="text;html=1;strokeColor=none;fillColor=none;align=center;verticalAlign=middle;whiteSpace=wrap;rounded=0;fontSize=9;" parent="1" vertex="1">
                    <mxGeometry x="349" y="296" width="60" height="30" as="geometry"/>
                </mxCell>
                <mxCell id="47" value="" style="endArrow=none;html=1;strokeWidth=2;startArrow=none;" edge="1" parent="1" target="30">
                    <mxGeometry width="50" height="50" relative="1" as="geometry">
                        <mxPoint x="370" y="270" as="sourcePoint"/>
                        <mxPoint x="480" y="230" as="targetPoint"/>
                    </mxGeometry>
                </mxCell>
                <mxCell id="30" value="" style="shape=waypoint;sketch=0;fillStyle=solid;size=5;pointerEvents=1;points=[];fillColor=none;resizable=0;rotatable=0;perimeter=centerPerimeter;snapToPoint=1;" parent="1" vertex="1">
                    <mxGeometry x="360" y="260" width="20" height="20" as="geometry"/>
                </mxCell>
                <mxCell id="48" value="" style="endArrow=none;dashed=1;html=1;" edge="1" parent="1" target="30">
                    <mxGeometry width="50" height="50" relative="1" as="geometry">
                        <mxPoint x="370" y="290" as="sourcePoint"/>
                        <mxPoint x="490" y="300" as="targetPoint"/>
                    </mxGeometry>
                </mxCell>
                <mxCell id="49" value="" style="endArrow=none;dashed=1;html=1;" edge="1" parent="1">
                    <mxGeometry width="50" height="50" relative="1" as="geometry">
                        <mxPoint x="419" y="290" as="sourcePoint"/>
                        <mxPoint x="419" y="250" as="targetPoint"/>
                    </mxGeometry>
                </mxCell>
                <mxCell id="50" value="" style="endArrow=classic;html=1;" edge="1" parent="1">
                    <mxGeometry width="50" height="50" relative="1" as="geometry">
                        <mxPoint x="370" y="288" as="sourcePoint"/>
                        <mxPoint x="370" y="298" as="targetPoint"/>
                    </mxGeometry>
                </mxCell>
                <mxCell id="52" value="" style="endArrow=classic;html=1;" edge="1" parent="1">
                    <mxGeometry width="50" height="50" relative="1" as="geometry">
                        <mxPoint x="419" y="262" as="sourcePoint"/>
                        <mxPoint x="419" y="252" as="targetPoint"/>
                    </mxGeometry>
                </mxCell>
                <mxCell id="53" value="" style="endArrow=classic;html=1;" edge="1" parent="1">
                    <mxGeometry width="50" height="50" relative="1" as="geometry">
                        <mxPoint x="400" y="256" as="sourcePoint"/>
                        <mxPoint x="387" y="261" as="targetPoint"/>
                    </mxGeometry>
                </mxCell>
                <mxCell id="57" value="" style="endArrow=classic;html=1;" edge="1" parent="1">
                    <mxGeometry width="50" height="50" relative="1" as="geometry">
                        <mxPoint x="487" y="216" as="sourcePoint"/>
                        <mxPoint x="474" y="221" as="targetPoint"/>
                    </mxGeometry>
                </mxCell>
                <mxCell id="58" value="" style="endArrow=classic;html=1;" edge="1" parent="1">
                    <mxGeometry width="50" height="50" relative="1" as="geometry">
                        <mxPoint x="452" y="232" as="sourcePoint"/>
                        <mxPoint x="472" y="222" as="targetPoint"/>
                    </mxGeometry>
                </mxCell>
                <mxCell id="62" value="" style="endArrow=none;dashed=1;html=1;dashPattern=1 3;strokeWidth=1;" edge="1" parent="1" source="32">
                    <mxGeometry width="50" height="50" relative="1" as="geometry">
                        <mxPoint x="440" y="350" as="sourcePoint"/>
                        <mxPoint x="310" y="290" as="targetPoint"/>
                    </mxGeometry>
                </mxCell>
                <mxCell id="63" value="" style="endArrow=none;dashed=1;html=1;dashPattern=1 3;strokeWidth=1;entryX=0.66;entryY=0.51;entryDx=0;entryDy=0;entryPerimeter=0;" edge="1" parent="1" target="30">
                    <mxGeometry width="50" height="50" relative="1" as="geometry">
                        <mxPoint x="310" y="270" as="sourcePoint"/>
                        <mxPoint x="490" y="300" as="targetPoint"/>
                    </mxGeometry>
                </mxCell>
                <mxCell id="64" value="" style="endArrow=none;dashed=1;html=1;dashPattern=1 3;strokeWidth=1;" edge="1" parent="1">
                    <mxGeometry width="50" height="50" relative="1" as="geometry">
                        <mxPoint x="310" y="297" as="sourcePoint"/>
                        <mxPoint x="370" y="297" as="targetPoint"/>
                    </mxGeometry>
                </mxCell>
                <mxCell id="65" value="" style="shape=waypoint;sketch=0;fillStyle=solid;size=5;pointerEvents=1;points=[];fillColor=none;resizable=0;rotatable=0;perimeter=centerPerimeter;snapToPoint=1;" vertex="1" parent="1">
                    <mxGeometry x="430" y="227" width="20" height="20" as="geometry"/>
                </mxCell>
                <mxCell id="66" value="" style="endArrow=none;dashed=1;html=1;dashPattern=1 3;strokeWidth=1;" edge="1" parent="1">
                    <mxGeometry width="50" height="50" relative="1" as="geometry">
                        <mxPoint x="309" y="239" as="sourcePoint"/>
                        <mxPoint x="439" y="239" as="targetPoint"/>
                    </mxGeometry>
                </mxCell>
                <mxCell id="67" value="" style="endArrow=none;dashed=1;html=1;dashPattern=1 3;strokeWidth=1;exitX=0.5;exitY=0;exitDx=0;exitDy=0;" edge="1" parent="1" source="16">
                    <mxGeometry width="50" height="50" relative="1" as="geometry">
                        <mxPoint x="370" y="320" as="sourcePoint"/>
                        <mxPoint x="370" y="300" as="targetPoint"/>
                    </mxGeometry>
                </mxCell>
                <mxCell id="68" value="" style="endArrow=none;dashed=1;html=1;dashPattern=1 3;strokeWidth=1;" edge="1" parent="1" source="69">
                    <mxGeometry width="50" height="50" relative="1" as="geometry">
                        <mxPoint x="419" y="320" as="sourcePoint"/>
                        <mxPoint x="419" y="290" as="targetPoint"/>
                    </mxGeometry>
                </mxCell>
                <mxCell id="69" value="$$x_I$$" style="text;html=1;strokeColor=none;fillColor=none;align=center;verticalAlign=middle;whiteSpace=wrap;rounded=0;fontSize=10;" vertex="1" parent="1">
                    <mxGeometry x="389" y="329" width="60" height="30" as="geometry"/>
                </mxCell>
                <mxCell id="70" value="$$y_{IA}$$" style="text;html=1;strokeColor=none;fillColor=none;align=center;verticalAlign=middle;whiteSpace=wrap;rounded=0;fontSize=10;" vertex="1" parent="1">
                    <mxGeometry x="256" y="222" width="60" height="30" as="geometry"/>
                </mxCell>
                <mxCell id="71" value="$$y_{DB}$$" style="text;html=1;strokeColor=none;fillColor=none;align=center;verticalAlign=middle;whiteSpace=wrap;rounded=0;fontSize=10;" vertex="1" parent="1">
                    <mxGeometry x="256" y="252" width="60" height="30" as="geometry"/>
                </mxCell>
                <mxCell id="72" value="$$y_{IB}$$" style="text;html=1;strokeColor=none;fillColor=none;align=center;verticalAlign=middle;whiteSpace=wrap;rounded=0;fontSize=10;" vertex="1" parent="1">
                    <mxGeometry x="256" y="269" width="60" height="30" as="geometry"/>
                </mxCell>
                <mxCell id="73" value="$$y_{DA}$$" style="text;html=1;strokeColor=none;fillColor=none;align=center;verticalAlign=middle;whiteSpace=wrap;rounded=0;fontSize=10;" vertex="1" parent="1">
                    <mxGeometry x="256" y="279" width="60" height="30" as="geometry"/>
                </mxCell>
                <mxCell id="74" value="" style="endArrow=classic;html=1;entryX=0.017;entryY=0.14;entryDx=0;entryDy=0;entryPerimeter=0;" edge="1" parent="1">
                    <mxGeometry width="50" height="50" relative="1" as="geometry">
                        <mxPoint x="355" y="300" as="sourcePoint"/>
                        <mxPoint x="345.0200000000001" y="301.20000000000005" as="targetPoint"/>
                    </mxGeometry>
                </mxCell>
                <mxCell id="75" value="" style="endArrow=classic;html=1;entryX=0;entryY=0.25;entryDx=0;entryDy=0;" edge="1" parent="1">
                    <mxGeometry width="50" height="50" relative="1" as="geometry">
                        <mxPoint x="314" y="306" as="sourcePoint"/>
                        <mxPoint x="343" y="302.5" as="targetPoint"/>
                    </mxGeometry>
                </mxCell>
            </root>
        </mxGraphModel>
    </diagram>
</mxfile>